<?xml version="1.0" ?><svg data-name="Layer 30" id="Layer_30" viewBox="0 0 32 32" xmlns="http://www.w3.org/2000/svg"><title/><path d="M15,19.134V6a3,3,0,0,0-3-3h0A3,3,0,0,0,9,6V19.133a2.018,2.018,0,0,1-.585,1.406,4.985,4.985,0,0,0,2.514,8.35A5.006,5.006,0,0,0,17,24a4.944,4.944,0,0,0-1.422-3.469A2,2,0,0,1,15,19.134Z" style="fill:#a9e5ff"/><path d="M16,19.134V6A3.987,3.987,0,0,0,8.556,4H7A1,1,0,0,0,7,6H8V8H7a1,1,0,0,0,0,2H8v2H7a1,1,0,0,0,0,2H8v2H7a1,1,0,0,0,0,2H8v1.133a1.022,1.022,0,0,1-.3.709,5.985,5.985,0,0,0,3.027,10.026,6.271,6.271,0,0,0,1.266.13,5.982,5.982,0,0,0,4.3-10.166A1,1,0,0,1,16,19.134ZM14.522,27.1a3.99,3.99,0,0,1-5.391-5.868,3.012,3.012,0,0,0,.868-2.1V6a2,2,0,0,1,4,0V19.134a2.984,2.984,0,0,0,.862,2.1A3.973,3.973,0,0,1,14.522,27.1Z" style="fill:#158fcc"/><path d="M25.5,14.134L23.536,13,25.5,11.866a1,1,0,1,0-1-1.732l-1.964,1.134V9a1,1,0,0,0-2,0v2.268l-1.964-1.134a1,1,0,1,0-1,1.732L19.536,13l-1.964,1.134a1,1,0,0,0,1,1.732l1.964-1.134V17a1,1,0,0,0,2,0V14.732L24.5,15.866A1,1,0,0,0,25.5,14.134Z" style="fill:#158fcc"/><circle cx="12" cy="24" r="2" style="fill:#a9e5ff"/><path d="M13.8,21.616a2,2,0,0,1-.8-1.6V17a1,1,0,0,0-2,0v3.019a1.914,1.914,0,0,1-.756,1.562A2.979,2.979,0,0,0,9.059,24.6,3,3,0,0,0,15,24,2.974,2.974,0,0,0,13.8,21.616ZM12,25a1,1,0,1,1,1-1A1,1,0,0,1,12,25Z" style="fill:#158fcc"/></svg>