<?xml version="1.0" ?><!DOCTYPE svg  PUBLIC '-//W3C//DTD SVG 1.1//EN'  'http://www.w3.org/Graphics/SVG/1.1/DTD/svg11.dtd'><svg enable-background="new 0 0 512 512" id="Layer_1" version="1.1" viewBox="0 0 512 512" xml:space="preserve" xmlns="http://www.w3.org/2000/svg" xmlns:xlink="http://www.w3.org/1999/xlink"><g><path d="   M209.8,389.9l0.4-247.9c0-16.6-12.5-28.1-27.4-28.1c-14.9,0-26.6,11.6-26.6,28.1l-0.4,247.9c-17.4,10.6-32.1,28.9-32.1,52.5   c0,34.5,28.4,61.9,59.4,61.9s59.7-25.9,59.7-60.4C242.9,420.2,227.3,400.5,209.8,389.9z" fill="#FF1901" id="XMLID_633_" stroke="#000000" stroke-linecap="round" stroke-miterlimit="10" stroke-width="8"/><path d="M206.3,155.4c0.9,0,1.6-0.7,1.6-1.6c0-0.9-0.7-1.6-1.6-1.6h-31.6c-0.9,0-1.6,0.7-1.6,1.6   c0,0.9,0.7,1.6,1.6,1.6H206.3z" id="XMLID_630_"/><path d="M206.9,167.4h-20.2c-0.6,0-1,0.7-1,1.6c0,0.9,0.5,1.6,1,1.6h20.2c0.6,0,1-0.7,1-1.6   C207.9,168.1,207.5,167.4,206.9,167.4z" id="XMLID_629_"/><path d="M206.9,182.5h-20.2c-0.6,0-1,0.7-1,1.6c0,0.9,0.5,1.6,1,1.6h20.2c0.6,0,1-0.7,1-1.6   C207.9,183.3,207.5,182.5,206.9,182.5z" id="XMLID_628_"/><path d="M206.9,197.7h-20.2c-0.6,0-1,0.7-1,1.6s0.5,1.6,1,1.6h20.2c0.6,0,1-0.7,1-1.6S207.5,197.7,206.9,197.7z" id="XMLID_627_"/><path d="M206.9,212.9h-20.2c-0.6,0-1,0.7-1,1.6c0,0.9,0.5,1.6,1,1.6h20.2c0.6,0,1-0.7,1-1.6   C207.9,213.6,207.5,212.9,206.9,212.9z" id="XMLID_626_"/><path d="M206.9,228.1h-20.2c-0.6,0-1,0.7-1,1.6c0,0.9,0.5,1.6,1,1.6h20.2c0.6,0,1-0.7,1-1.6   C207.9,228.8,207.5,228.1,206.9,228.1z" id="XMLID_625_"/><path d="M206.9,243.2h-20.2c-0.6,0-1,0.7-1,1.6c0,0.9,0.5,1.6,1,1.6h20.2c0.6,0,1-0.7,1-1.6   C207.9,244,207.5,243.2,206.9,243.2z" id="XMLID_624_"/><path d="M207,261.6L207,261.6c0.2,0,0.4,0,0.5-0.1c0.6-0.2,1.1-0.8,1.1-1.5c0-0.7-0.5-1.3-1.1-1.5   c-0.2-0.1-0.3-0.1-0.5-0.1l0,0h-31.6c-0.9,0-1.6,0.7-1.6,1.6c0,0.9,0.7,1.6,1.6,1.6H207z" id="XMLID_623_"/><path d="M207.6,273.6h-20.2c-0.6,0-1,0.7-1,1.6c0,0.9,0.5,1.6,1,1.6h20.2c0.6,0,1-0.7,1-1.6   C208.6,274.3,208.1,273.6,207.6,273.6z" id="XMLID_622_"/><path d="M207.6,288.7h-20.2c-0.6,0-1,0.7-1,1.6c0,0.9,0.5,1.6,1,1.6h20.2c0.6,0,1-0.7,1-1.6   C208.6,289.5,208.1,288.7,207.6,288.7z" id="XMLID_621_"/><path d="M207.6,303.9h-20.2c-0.6,0-1,0.7-1,1.6c0,0.9,0.5,1.6,1,1.6h20.2c0.6,0,1-0.7,1-1.6   C208.6,304.6,208.1,303.9,207.6,303.9z" id="XMLID_620_"/><path d="M207.6,319.1h-20.2c-0.6,0-1,0.7-1,1.6c0,0.9,0.5,1.6,1,1.6h20.2c0.6,0,1-0.7,1-1.6   C208.6,319.8,208.1,319.1,207.6,319.1z" id="XMLID_619_"/><path d="M207.6,334.3h-20.2c-0.6,0-1,0.7-1,1.6c0,0.9,0.5,1.6,1,1.6h20.2c0.6,0,1-0.7,1-1.6   C208.6,335,208.1,334.3,207.6,334.3z" id="XMLID_618_"/><path d="M207.6,349.4h-20.2c-0.6,0-1,0.7-1,1.6c0,0.9,0.5,1.6,1,1.6h20.2c0.6,0,1-0.7,1-1.6   C208.6,350.2,208.1,349.4,207.6,349.4z" id="XMLID_617_"/><path d="M207.6,364.6H176c-0.9,0-1.6,0.7-1.6,1.6c0,0.9,0.7,1.6,1.6,1.6h31.7c0.9,0,1.6-0.7,1.6-1.6   C209.3,365.3,208.5,364.6,207.6,364.6z" id="XMLID_616_"/><g><circle cx="308.7" cy="96.7" fill="#FFE235" r="35.6" stroke="#FF1901" stroke-linecap="round" stroke-miterlimit="10" stroke-width="8"/><g><line fill="none" stroke="#FF1901" stroke-linecap="round" stroke-miterlimit="10" stroke-width="8" x1="308.7" x2="308.7" y1="53.2" y2="4.2"/><line fill="none" stroke="#FF1901" stroke-linecap="round" stroke-miterlimit="10" stroke-width="8" x1="308.7" x2="308.7" y1="189.2" y2="140.3"/></g><g><line fill="none" stroke="#FF1901" stroke-linecap="round" stroke-miterlimit="10" stroke-width="8" x1="286.9" x2="267.2" y1="59" y2="23.9"/><line fill="none" stroke="#FF1901" stroke-linecap="round" stroke-miterlimit="10" stroke-width="8" x1="351.6" x2="330.5" y1="170" y2="134.4"/></g><g><line fill="none" stroke="#FF1901" stroke-linecap="round" stroke-miterlimit="10" stroke-width="8" x1="265.3" x2="225" y1="97.4" y2="97"/><line fill="none" stroke="#FF1901" stroke-linecap="round" stroke-miterlimit="10" stroke-width="8" x1="393.8" x2="352.4" y1="96.9" y2="97.4"/></g><g><line fill="none" stroke="#FF1901" stroke-linecap="round" stroke-miterlimit="10" stroke-width="8" x1="287.8" x2="267.2" y1="135.4" y2="170"/><line fill="none" stroke="#FF1901" stroke-linecap="round" stroke-miterlimit="10" stroke-width="8" x1="351.6" x2="331.3" y1="23.9" y2="60"/></g><g><line fill="none" stroke="#FF1901" stroke-linecap="round" stroke-miterlimit="10" stroke-width="8" x1="271" x2="228.6" y1="75" y2="50.5"/><line fill="none" stroke="#FF1901" stroke-linecap="round" stroke-miterlimit="10" stroke-width="8" x1="388.8" x2="346.4" y1="143" y2="118.5"/></g><g><line fill="none" stroke="#FF1901" stroke-linecap="round" stroke-miterlimit="10" stroke-width="8" x1="271" x2="228.6" y1="118.5" y2="143"/><line fill="none" stroke="#FF1901" stroke-linecap="round" stroke-miterlimit="10" stroke-width="8" x1="388.8" x2="346.4" y1="50.5" y2="75"/></g></g></g></svg>